<svg width="200" height="40" viewBox="0 0 200 40" fill="none" xmlns="http://www.w3.org/2000/svg">
<path d="M30.9772 26.0694C31.8638 25.6206 32.695 25.0596 33.5817 24.5547C34.025 24.2742 34.5237 24.1059 34.9671 24.4986C35.2441 24.723 35.4104 24.4986 35.5766 24.3864C35.9645 24.1059 36.3524 23.9937 36.7403 24.2742C37.1836 24.5547 37.2945 24.9474 37.1836 25.3962C37.1836 25.6767 37.1836 25.9011 37.3499 26.1816C37.6824 26.7427 37.3499 27.3037 37.1282 27.8086C36.9066 28.2013 36.6295 28.594 36.6849 29.0989C36.6849 29.7721 36.2416 30.277 35.7429 30.7819C34.0804 32.4649 31.9747 33.2504 29.7027 33.6992C28.5389 33.9236 27.3752 34.148 26.1561 34.2041C24.272 34.3724 22.6096 35.1017 21.0579 36.1676C20.5038 36.5603 20.0051 36.8969 19.5063 37.2896C19.063 37.5701 18.6751 37.5701 18.2318 37.2896C18.2318 37.2896 18.2318 37.2896 18.1764 37.2896C15.7381 35.2139 12.912 34.2041 9.75334 33.9797C7.42592 33.8114 5.15391 33.0821 3.15898 31.7356C2.43859 31.2307 1.66278 30.6697 1.33029 29.8282C0.997805 28.8745 0.499073 27.9208 0.277414 26.911C0.111169 26.2377 0.443658 25.3401 0.665317 24.6108C0.831561 24.0498 1.49654 23.9376 1.99527 24.2742C2.32776 24.4986 2.60483 24.6669 3.04815 24.3864C3.38064 24.162 3.82396 24.3864 4.15645 24.6108C5.04308 25.1157 5.92972 25.6767 6.81635 26.1816C6.81635 26.1816 6.92718 26.1816 6.9826 26.1816C6.9826 25.9572 6.9826 25.7889 6.9826 25.5645C6.9826 24.723 7.81382 24.2181 8.53421 24.6108C10.2521 25.5084 12.0808 26.0133 13.9649 26.3499C16.0706 26.7427 17.5668 28.033 18.5089 29.9965C18.6197 30.2209 18.7305 30.4453 18.7859 30.6697C19.063 30.6136 19.063 30.3331 19.1184 30.1648C20.1713 28.033 21.7783 26.7427 24.0503 26.2938C25.8236 26.0133 27.4861 25.5084 29.0377 24.6669C29.9797 24.162 30.7001 24.6669 30.7001 26.0133C30.7001 26.0694 30.6447 26.1816 30.7001 26.1816C30.7555 26.2938 30.8664 26.1816 30.9218 26.1816L30.9772 26.0694ZM35.4104 29.6599C33.6371 30.838 31.6976 31.6795 29.7027 32.2966C29.4256 32.4088 29.0931 32.521 28.9823 32.0722C28.8714 31.7356 29.2039 31.6234 29.481 31.5673C30.6447 31.2307 31.753 30.7819 32.8059 30.277C33.8033 29.7721 34.8008 29.2672 35.632 28.4818C36.1862 27.9769 36.6295 27.3598 36.7957 26.5744C36.5187 26.5744 36.4078 26.7427 36.297 26.8549C34.2467 28.9306 31.6422 30.0526 28.9268 31.0063C28.7052 31.0624 28.4835 31.1185 28.3727 30.838C28.2065 30.5575 28.4281 30.3892 28.6498 30.277C28.9268 30.1648 29.2039 30.0526 29.5364 29.9404C31.6976 29.155 33.6925 28.2013 35.4104 26.5744C35.7983 26.2377 36.1308 25.9011 36.3524 25.3962C36.4632 25.1718 36.5187 24.9474 36.3524 24.7791C36.1308 24.6108 36.0199 24.8352 35.8537 24.9474C35.0779 25.3962 34.6346 26.2377 33.9142 26.7988C32.1963 28.0891 30.2568 28.9306 28.2619 29.6599C28.0402 29.7721 27.7631 29.7721 27.6523 29.4916C27.5415 29.2111 27.7631 29.0428 27.9848 28.9867C28.5944 28.7623 29.2593 28.4818 29.8689 28.2574C31.2543 27.6403 32.6396 26.9671 33.8033 25.9572C34.0804 25.7328 34.4129 25.4523 34.4129 24.9474C34.025 24.9474 33.8033 25.2279 33.5263 25.3962C31.8084 26.4622 30.0906 27.4159 28.2064 28.2013C27.3198 28.5379 26.3778 28.8745 25.3803 28.9867C25.1586 28.9867 24.8816 29.0428 24.8262 28.7062C24.7707 28.4257 24.9924 28.3135 25.2141 28.2013C26.1007 27.8647 26.9319 27.5281 27.8185 27.1915C28.5389 26.8549 29.2039 26.4622 29.8135 25.9011C30.0351 25.6767 30.146 25.4523 29.9797 25.2279C29.7581 24.9474 29.5364 25.1157 29.3147 25.2279C27.7077 26.1255 25.9344 26.5744 24.1058 26.911C22.4433 27.1915 21.1688 28.1452 20.2821 29.5477C18.8968 31.6795 19.3955 34.0358 19.2847 36.4481C19.5063 36.2798 19.6172 36.2237 19.728 36.1676C21.8892 34.4846 24.3274 33.4187 27.1536 33.2504C29.2593 33.1382 31.3651 32.6332 33.2492 31.5673C34.1358 31.0624 35.0225 30.5575 35.5766 29.716C35.5766 29.716 35.6874 29.6038 35.6874 29.5477C35.632 29.4355 35.5212 29.5477 35.4658 29.5477L35.4104 29.6599ZM2.16152 29.7721C3.04815 30.7819 4.10103 31.4551 5.32016 32.0161C6.81636 32.6893 8.42338 33.0821 10.0858 33.2504C12.6903 33.4748 15.2394 34.0358 17.3452 35.7188C17.6776 35.9993 18.0101 36.2237 18.4535 36.5042C18.4535 34.9895 18.5643 33.587 18.4535 32.1844C18.1764 29.4916 16.1814 27.5281 13.577 27.0232C11.8591 26.6866 10.2521 26.2938 8.70046 25.4523C8.42338 25.3401 8.09089 24.9474 7.81382 25.3962C7.59216 25.7889 7.92465 26.0133 8.20172 26.2377C8.4788 26.4622 8.75587 26.6305 9.03295 26.7988C10.0858 27.4159 11.2495 27.8647 12.4687 28.2574C12.7457 28.3696 13.0782 28.3696 13.0228 28.8184C12.912 29.2111 12.5795 29.0989 12.3024 29.0428C12.1916 29.0428 12.0808 29.0428 11.9699 28.9867C9.19919 28.3696 6.70553 26.9671 4.32269 25.5084C4.04562 25.3401 3.82396 25.1157 3.38064 25.0596C3.49147 25.5645 3.76854 25.845 4.04562 26.0694C4.76601 26.6866 5.54182 27.1915 6.37304 27.5842C7.48133 28.1452 8.64504 28.6501 9.80875 29.0428C10.0304 29.155 10.3075 29.2672 10.1967 29.5477C10.0858 29.8282 9.86417 29.8282 9.58709 29.716C7.14884 28.7062 4.59976 27.9208 2.82649 25.7328C2.54942 25.3962 2.21693 25.2279 1.88444 24.9474C1.77361 24.8352 1.66278 24.723 1.49654 24.8352C1.33029 24.9474 1.33029 25.1157 1.38571 25.284C1.55195 25.7328 1.82903 26.0133 2.16152 26.3499C3.6023 27.8086 5.32016 28.7623 7.20426 29.5477C7.86924 29.8282 8.4788 30.0526 9.14377 30.277C9.36543 30.3892 9.58709 30.5014 9.47626 30.838C9.36543 31.0624 9.14377 31.0624 8.92212 31.0063C6.26221 30.0526 3.65771 28.9306 1.60737 26.911C1.49654 26.7988 1.38571 26.5183 1.10863 26.5744C1.10863 26.911 1.27488 27.1354 1.38571 27.4159C1.88444 28.3135 2.66025 28.9306 3.54688 29.4916C5.04308 30.4453 6.65011 31.0624 8.31255 31.6234C8.58963 31.7356 9.03295 31.7356 8.8667 32.1844C8.75587 32.5771 8.36797 32.4088 8.14631 32.2966C6.37304 31.7356 4.59976 31.0063 2.99274 29.9965C2.77108 29.8843 2.60483 29.6599 2.27234 29.8282L2.16152 29.7721Z" fill="white"/>
<path d="M20.2267 17.1494C20.2267 19.7301 20.2267 22.2546 20.2267 24.8352C20.2267 25.5084 20.0051 25.7889 19.3401 25.7328C17.3452 25.6767 17.6222 25.9573 17.6222 23.9376C17.6222 21.6936 17.6222 19.5057 17.6222 17.2616C17.6222 16.925 17.6222 16.5884 17.6222 16.1957C17.6222 14.2322 17.6222 12.2686 17.6222 10.249C17.6222 9.8563 17.456 9.8002 17.1235 9.8002C15.9598 9.8002 14.7961 9.8002 13.6324 9.8002C13.1336 9.8002 12.912 9.688 12.912 9.12699C12.912 7.33177 12.912 7.33177 14.6298 7.33177C15.4611 7.33177 16.2369 7.33177 17.0681 7.33177C17.5114 7.33177 17.6222 7.21956 17.6222 6.77076C17.6222 5.59264 17.6222 4.47062 17.6222 3.2925C17.6222 2.7315 17.8439 2.50709 18.398 2.50709C20.6146 2.50709 20.2267 2.28269 20.2821 4.35842C20.2821 5.14383 20.2821 5.92924 20.2821 6.77076C20.2821 7.21956 20.393 7.33177 20.8363 7.33177C22 7.33177 23.1637 7.33177 24.3274 7.33177C24.8262 7.33177 24.9924 7.44397 24.9924 8.00498C24.9924 9.85631 24.9924 9.8563 23.2191 9.8563C22.3879 9.8563 21.6121 9.8563 20.7809 9.8563C20.4484 9.8563 20.2821 9.8563 20.2821 10.3051C20.2821 12.2686 20.2821 14.2322 20.2821 16.2518C20.2821 16.5323 20.2821 16.8689 20.2821 17.1494H20.2267Z" fill="white"/>
<path d="M20.2267 17.1494C20.2267 16.8689 20.2267 16.5323 20.2267 16.2518C23.9395 16.5323 27.0427 18.1031 29.2039 21.3009C29.3147 21.4692 29.3701 21.6375 29.4809 21.8058C29.6472 22.0863 29.5918 22.2546 29.3701 22.4229C29.093 22.5912 28.9268 22.4229 28.7606 22.2546C28.4281 21.8058 28.2064 21.357 27.8739 20.9643C26.1006 18.8885 23.8286 17.7104 21.1687 17.3177C20.8917 17.3177 20.5592 17.2616 20.2267 17.2055V17.1494Z" fill="#BFAB42"/>
<path d="M17.5114 16.2518C17.5114 16.5884 17.5114 16.925 17.5114 17.3177C15.4056 17.3177 13.5769 18.2153 11.9145 19.3373C10.8616 20.0667 10.0858 21.0204 9.47624 22.0863C9.30999 22.3668 9.14375 22.5912 8.81126 22.4229C8.47877 22.2546 8.53419 21.9741 8.70043 21.6936C9.53165 20.0667 10.8062 18.8885 12.3024 17.9909C13.9094 16.9811 15.6827 16.4201 17.5668 16.2518H17.5114Z" fill="#BFAB42"/>
<path d="M5.3755 16.1396C5.3755 16.1396 5.7634 16.3079 5.92965 16.4762C6.48379 16.9811 6.98253 17.5982 7.59209 18.047C7.86916 18.2153 8.14624 18.5519 7.86916 18.8885C7.59209 19.2251 7.2596 19.0568 6.92711 18.7763C6.31755 18.1592 5.7634 17.5421 5.04301 17.0372C4.87677 16.925 4.76594 16.7567 4.87677 16.5323C4.9876 16.3079 5.15384 16.1957 5.3755 16.1957V16.1396Z" fill="#BFAB42"/>
<path d="M10.9724 12.2125C10.9724 12.2125 11.4157 12.3808 11.4712 12.5491C11.9145 13.3346 12.3024 14.1761 12.6903 14.9615C12.8011 15.1859 12.9119 15.4664 12.5794 15.6347C12.3024 15.7469 12.0253 15.6347 11.9145 15.4103C11.4712 14.5688 11.0278 13.7834 10.5845 12.9418C10.4183 12.5491 10.5291 12.2686 10.917 12.2686L10.9724 12.2125Z" fill="#BFAB42"/>
<path d="M27.3198 12.7735C27.0427 13.3346 26.7102 14.0078 26.3777 14.681C26.2115 14.9615 26.1007 15.242 25.9344 15.5225C25.7682 15.803 25.5465 15.7469 25.3249 15.6347C25.1032 15.5225 25.0478 15.2981 25.1586 15.0737C25.6019 14.1761 26.0453 13.3346 26.544 12.4369C26.6548 12.2125 26.8765 12.1564 27.0981 12.2125C27.3198 12.2686 27.3752 12.4369 27.3752 12.7735H27.3198Z" fill="#BFAB42"/>
<path d="M30.2568 19.0007C29.8135 19.0007 29.5918 18.6641 29.8689 18.3275C30.5339 17.5421 31.3097 16.8128 32.1409 16.1957C32.3626 16.0274 32.5288 16.1396 32.6951 16.3079C32.8059 16.4762 32.8613 16.6445 32.6951 16.7567C31.9193 17.486 31.2543 18.2714 30.4231 18.8885C30.3676 18.8885 30.2568 18.9446 30.2014 19.0007H30.2568Z" fill="#BFAB42"/>
<path d="M45.4905 0V40" stroke="#CCC19A" stroke-width="4"/>
<g clip-path="url(#clip0_49_3648)">
<path d="M67.6617 12.8225C67.6617 13.7352 67.6617 14.6479 67.6617 15.5944C67.6617 15.831 67.5267 15.9324 67.2118 15.9324C66.447 15.9324 65.6822 15.9324 64.9174 15.9324C64.5575 15.9324 64.4676 15.831 64.4676 15.5606C64.4676 11.8761 64.4676 8.15775 64.4676 4.47324C64.4676 4.20282 64.6025 4.10141 64.9174 4.13521C65.6822 4.13521 66.447 4.13521 67.2118 4.13521C67.4368 4.13521 67.6167 4.13521 67.6617 4.33803C67.6617 4.43944 67.6617 4.54084 67.6617 4.64225V4.70986C67.6617 4.70986 67.6167 4.74366 67.5717 4.77746C67.3018 4.77746 67.1668 4.94648 66.9869 5.08169C66.8069 5.1831 66.8969 5.31831 66.9869 5.41972C67.1668 5.55493 67.1668 5.35211 67.3018 5.31831C67.3918 5.31831 67.4817 5.28451 67.5717 5.2507C67.5717 5.2507 67.6167 5.2507 67.6617 5.2507C67.6617 5.2507 67.6617 5.28451 67.6617 5.31831C67.6167 6.12958 67.6167 6.97465 67.6617 7.78591C67.6617 7.92113 67.5717 8.02253 67.7067 8.15775C67.9316 8.09014 68.0666 7.98873 68.2015 7.88732C68.4715 7.78591 68.7414 7.68451 69.0113 7.54929C69.2813 7.48169 69.5962 7.44789 69.8661 7.38028C70.136 7.38028 70.4509 7.38028 70.7209 7.38028C70.7658 7.38028 70.8558 7.38028 70.9008 7.41408C70.9908 7.41408 71.0358 7.41408 71.1258 7.44789C71.7106 7.68451 72.0705 8.09014 72.2504 8.56338C72.2504 8.56338 72.2504 8.59718 72.2504 8.63098C72.1605 8.73239 72.0255 8.8 71.9355 8.90141C71.8456 9.00282 71.9355 9.10422 72.0255 9.17183C72.2055 9.27324 72.2504 9.13803 72.3404 9.07042C72.3404 9.07042 72.3854 9.07042 72.4304 9.07042C72.4304 11.1324 72.4304 13.2282 72.4304 15.2901C72.4304 15.831 72.4304 15.831 71.7556 15.831C70.9458 15.831 70.136 15.831 69.3262 15.831C69.3262 14.7155 69.3262 13.5662 69.3262 12.4507C69.3262 12.2479 69.3262 12.0451 69.3262 11.8423C69.3262 11.0986 69.3262 10.3549 69.3262 9.61127C69.3262 9.30704 69.1913 9.07042 68.6964 9.07042C68.2465 9.07042 67.7067 9.37465 67.7067 9.64507C67.7067 10.4901 67.7067 11.3352 67.7067 12.1465C67.7067 12.2479 67.7067 12.3493 67.6617 12.4507C67.5717 12.4507 67.4817 12.3493 67.3918 12.3493C67.1668 12.3493 67.0769 12.4845 66.9869 12.6197C66.9419 12.7211 66.9869 12.8225 67.0769 12.8563C67.3018 12.9577 67.3018 12.7549 67.4368 12.7211C67.5267 12.7211 67.6167 12.7211 67.7067 12.7211L67.6617 12.8225Z" fill="#D7B300"/>
<path d="M104.417 7.95493C105.137 7.6169 105.856 7.41408 106.711 7.44789C107.566 7.48169 108.106 7.95493 108.331 8.46197C108.871 9.57747 108.466 10.7268 108.646 11.8761C108.646 12.0789 108.601 12.2479 108.646 12.4507C108.646 12.4507 108.646 12.4507 108.601 12.4507C108.466 12.4507 108.466 12.1803 108.331 12.2479C108.016 12.5183 107.521 12.5521 107.251 12.8225C107.116 12.9239 107.161 13.0592 107.251 13.1606C107.386 13.2958 107.476 13.1606 107.566 13.1268C107.881 12.9577 108.196 12.7887 108.511 12.6197C108.511 13.6338 108.511 14.6479 108.511 15.662C108.511 15.8986 108.376 15.9662 108.106 15.9662C107.341 15.9662 106.621 15.9662 105.856 15.9662C105.406 15.9662 105.316 15.831 105.316 15.5606C105.316 13.7014 105.316 11.8423 105.316 9.9493C105.316 9.71268 105.361 9.40845 105.002 9.27324C104.597 9.13803 104.237 9.27324 103.922 9.44225C103.742 9.54366 103.697 9.67887 103.697 9.81409C103.697 11.6394 103.697 13.4986 103.697 15.3239C103.697 15.6282 103.697 16 103.067 15.9324C102.392 15.9324 101.717 15.9324 101.043 15.9324C100.683 15.9324 100.503 15.8648 100.503 15.5606C100.503 11.8761 100.503 8.19155 100.503 4.54085C100.503 4.27042 100.593 4.13521 100.998 4.16901C101.762 4.16901 102.482 4.16901 103.247 4.16901C103.652 4.16901 103.742 4.27042 103.742 4.54085C103.742 5.62254 103.742 6.67042 103.742 7.75211C103.742 7.85352 103.742 7.95493 103.697 8.05634C103.202 8.32676 102.797 8.73239 102.212 8.96901C102.122 8.96901 102.077 9.07042 102.032 9.17183C101.987 9.27324 102.077 9.37465 102.212 9.44225C102.257 9.47606 102.347 9.50986 102.392 9.44225C102.932 9.07042 103.607 8.8 103.967 8.29296C104.102 8.19155 104.192 8.09014 104.327 7.98873L104.417 7.95493Z" fill="#D7B300"/>
<path d="M82.1478 9.44225C82.1478 11.4366 82.1478 13.431 82.1478 15.4592C82.1478 15.7972 82.0128 15.9324 81.5629 15.8986C80.8881 15.8986 80.2133 15.8986 79.5385 15.8986C79.1786 15.8986 78.9536 15.831 78.9986 15.5268C79.0436 15.2225 78.9086 15.2225 78.5937 15.3915C77.739 15.831 76.8842 16.1352 75.8045 15.9662C74.9497 15.831 74.5448 15.3577 74.3649 14.7493C74.2749 14.4789 74.2299 14.2084 74.2299 13.9718C74.2299 11.9775 74.2299 9.9831 74.2299 8.02253C74.2299 7.68451 74.3199 7.54929 74.8148 7.54929C75.5346 7.54929 76.2544 7.54929 77.0192 7.54929C77.3341 7.54929 77.469 7.6169 77.469 7.85352C77.469 9.37465 77.469 10.8958 77.469 12.4169C77.1091 12.7324 77.1091 13.0028 77.469 13.2282C77.469 13.4648 77.469 13.7014 77.469 13.938C77.469 14.2761 77.694 14.4789 78.1439 14.4789C78.6837 14.4789 79.0436 14.2423 79.0436 13.9042C79.0436 13.2958 79.0436 12.7211 79.0436 12.1127C79.0436 12.0451 79.0436 12.0113 79.0436 11.9437C79.0436 11.7746 79.0436 11.5718 79.0436 11.4028C79.0436 10.2535 79.0436 9.10422 79.0436 7.98873C79.0436 7.6507 79.1786 7.54929 79.6285 7.5831C80.3033 7.5831 80.9781 7.5831 81.6529 7.5831C82.1028 7.5831 82.2377 7.68451 82.1928 8.02253C82.1928 8.29296 82.1928 8.56338 82.1928 8.8676C82.1928 9.10422 82.1928 9.30704 82.1928 9.54366L82.1478 9.44225Z" fill="#D7B300"/>
<path d="M98.4333 12.4845C98.8832 12.4169 99.0182 12.5521 98.9732 12.8901C98.9732 13.1944 98.9732 13.4648 98.9732 13.769C98.8832 14.8507 98.0285 15.6282 96.6338 15.8648C95.7791 16.0338 94.9243 16.0338 94.0245 15.9324C94.0245 15.9324 94.0245 15.8986 94.0245 15.8648C94.2495 15.6958 94.3844 15.5268 94.1145 15.3577C93.8896 15.2225 93.7996 15.493 93.6646 15.5944C93.6197 15.6282 93.5747 15.6958 93.5297 15.7634C93.4397 15.7634 93.3047 15.7296 93.2148 15.6958C92.0901 15.2563 91.4602 14.5803 91.3703 13.6338C91.2353 12.3155 91.2353 11.031 91.3703 9.71267C91.5052 8.49577 92.5849 7.6845 94.1595 7.48169C95.0593 7.38028 95.959 7.41408 96.8588 7.5831C97.9835 7.78591 98.9732 8.8 98.9732 9.67887C98.9732 10.7944 98.9732 10.7944 97.5786 10.7944C97.0837 10.7944 96.4539 10.9634 96.094 10.7268C95.7341 10.4901 96.004 10.0169 95.959 9.64507C95.914 9.30704 95.8241 9.03662 95.2392 9.00281C94.7893 9.00281 94.5644 9.17183 94.5644 9.61126C94.5644 10.9634 94.5644 12.3155 94.5644 13.7014C94.5644 14.107 94.8343 14.3437 95.2392 14.3437C95.6441 14.3437 95.914 14.107 95.914 13.7014C95.914 13.3972 95.914 13.0592 95.914 12.7549C95.914 12.5521 96.004 12.4507 96.3189 12.4507C96.6788 12.4507 97.0837 12.4507 97.4436 12.4507C97.3536 12.5521 97.2637 12.6197 97.1737 12.7211C97.0837 12.8563 97.1737 12.9577 97.2637 13.0254C97.3087 13.0592 97.3986 13.1606 97.4886 13.093C97.7585 12.8225 98.2984 12.7887 98.4333 12.4169V12.4845ZM93.8896 8.25915C93.8896 8.25915 93.8446 8.15774 93.7996 8.12394C93.7096 8.05633 93.6197 8.12394 93.5297 8.15774C93.2148 8.36056 92.8998 8.56338 92.5849 8.76619C92.405 8.8676 92.0001 8.93521 92.18 9.20563C92.45 9.57746 92.495 9.10422 92.6749 9.10422C93.3497 9.10422 93.3497 8.49577 93.8446 8.36056C93.8446 8.36056 93.8446 8.32676 93.8446 8.25915H93.8896Z" fill="#D7B300"/>
<path d="M87.3663 13.2282C87.3663 13.9718 87.3663 14.7493 87.3663 15.493C87.3663 15.7972 87.2764 15.9324 86.8265 15.8986C86.1067 15.8986 85.3869 15.8986 84.6671 15.8986C84.4871 15.8986 84.2622 15.8986 84.1272 15.7634C84.1272 15.5606 84.1272 15.3916 84.1272 15.1887C84.1272 12.8225 84.1272 10.4901 84.1272 8.12394C84.1272 7.95493 84.1272 7.81972 84.1272 7.65071C84.2172 7.48169 84.3972 7.48169 84.5771 7.48169C85.3419 7.48169 86.1517 7.48169 86.9165 7.48169C87.2314 7.48169 87.3663 7.5493 87.3214 7.81972C87.3214 8.12394 87.3214 8.42817 87.3214 8.8338C87.6813 8.49578 87.9512 8.22535 88.2211 7.95493C88.626 7.6169 89.1209 7.41409 89.7507 7.41409C90.0656 7.41409 90.2006 7.48169 90.2006 7.71831C90.2006 8.32676 90.2006 8.93521 90.2006 9.50986C90.2006 9.78028 90.0656 9.81409 89.7957 9.71268C89.0309 9.50986 88.4011 9.71268 87.8162 10.0507C87.4563 10.2873 87.2764 10.5239 87.2764 10.8958C87.3214 11.369 87.2764 11.8423 87.2764 12.3493C87.2764 12.5521 87.2764 12.7211 87.2764 12.9239C87.2764 12.9577 87.2764 12.9916 87.2764 13.0592C87.2764 13.093 87.2764 13.1268 87.2764 13.1606L87.3663 13.2282Z" fill="#D7B300"/>
<path d="M108.601 12.5521C108.286 12.7211 107.971 12.8563 107.656 13.0592C107.521 13.1268 107.476 13.2282 107.341 13.093C107.206 12.9916 107.206 12.8901 107.341 12.7549C107.611 12.4845 108.106 12.4507 108.421 12.1803C108.511 12.0789 108.511 12.3493 108.691 12.3831C108.691 12.4507 108.691 12.4845 108.691 12.5521H108.601Z" fill="#C5B35C"/>
<path d="M98.4333 12.4845C98.2984 12.8563 97.7585 12.8901 97.4886 13.1606C97.4436 13.2282 97.3536 13.1606 97.2637 13.093C97.1737 12.9916 97.0837 12.8901 97.1737 12.7887C97.2637 12.6873 97.3536 12.5859 97.4436 12.5183C97.7585 12.5183 98.0734 12.5183 98.3884 12.5183L98.4333 12.4845Z" fill="#C5B35C"/>
<path d="M77.424 12.4845C77.424 12.4845 77.424 12.7211 77.424 12.8225C77.424 12.9577 77.424 13.093 77.3791 13.2282C77.0192 13.0028 77.0192 12.7324 77.3791 12.4169C77.3791 12.4169 77.3791 12.4507 77.424 12.4845Z" fill="#C5B35C"/>
<path d="M53.4906 8.32676C53.4906 8.09014 53.4906 7.85352 53.4906 7.6169C53.4906 7.51549 53.4906 7.41408 53.4906 7.31267C53.5805 6.94084 53.6705 6.56901 53.7605 6.23098C54.1654 5.04788 55.2001 4.37183 56.7297 4.10141C56.8196 4.10141 56.9546 4.10141 57.0446 4.10141C57.4945 4.10141 57.8994 4 58.3492 4.10141C58.3042 4.16901 58.2593 4.23662 58.1693 4.30422C57.8094 4.54084 57.5395 4.87887 57.0446 5.01408C56.8646 5.08169 56.6847 5.2169 56.8646 5.41972C57.0446 5.58873 57.1346 5.41972 57.2245 5.35211C57.3145 5.2845 57.4495 5.2845 57.5395 5.2507C58.0793 5.04788 58.5292 4.54084 58.4842 4.13521C58.5742 4.13521 58.7091 4.13521 58.7991 4.13521C59.384 4.23662 59.9688 4.27042 60.5536 4.43943C61.7683 4.81126 62.3082 5.58873 62.5781 6.50141C62.758 7.10986 62.5781 7.75211 62.713 8.36056L62.6231 8.52957C62.6231 8.52957 62.2632 8.52957 62.0832 8.52957C61.3184 8.52957 60.5086 8.52957 59.7439 8.52957C59.384 8.52957 59.294 8.46197 59.294 8.19155C59.294 7.6845 59.294 7.21127 59.204 6.70422C59.069 6.19718 58.8441 5.99436 58.2143 5.99436C57.5395 5.99436 57.1796 6.16338 57.0446 6.67042C56.9996 6.83943 56.9546 7.04225 56.9546 7.21127C56.9546 9.03662 56.9546 10.8282 56.9546 12.6535C56.9096 12.8563 56.9546 13.093 56.9546 13.2958C56.9546 13.3634 56.9546 13.431 56.9546 13.4986C57.0896 14.0732 57.4045 14.2761 58.1243 14.2423C58.7541 14.2423 59.0241 14.0394 59.114 13.431C59.204 12.9239 59.204 12.4169 59.159 11.8761C59.159 11.8423 59.159 11.8084 59.159 11.7746C59.204 11.5718 59.4739 11.6056 59.6539 11.6056C60.4187 11.6056 61.1835 11.6056 61.9483 11.6056C62.4431 11.6056 62.6231 11.707 62.6231 12.0451C62.6231 12.1127 62.6231 12.1465 62.6231 12.2141C62.6231 12.2817 62.6231 12.3831 62.6231 12.4507C62.6231 13.3634 62.4431 14.2084 61.8133 15.0197C61.6783 15.0873 61.5434 15.2225 61.4534 15.3239C60.5086 15.9324 59.339 16.0676 58.1693 16.1352C58.0793 16.1352 58.0343 16.1352 57.9443 16.1352H57.7194C57.7194 16.1352 57.4945 16.1352 57.4045 16.1352C56.9546 16.0676 56.5047 16.0338 56.0998 15.9324C54.4803 15.5606 53.7605 14.6479 53.4906 13.4986C53.4456 13.2958 53.4006 13.093 53.3556 12.8563C53.3556 11.4028 53.3556 9.91549 53.3556 8.46197L53.4906 8.32676Z" fill="#D7B300"/>
<path d="M58.5292 4.0338C58.5292 4.43944 58.1243 4.94648 57.5844 5.1493C57.4945 5.1831 57.3595 5.2169 57.2695 5.25071C57.1346 5.31831 57.0896 5.48733 56.9096 5.31831C56.7297 5.1493 56.9096 4.98028 57.0896 4.91268C57.5844 4.77747 57.8094 4.43944 58.2143 4.20282C58.3042 4.16902 58.3492 4.06761 58.3942 4C58.3942 4 58.4392 3.9662 58.4842 3.9324C58.4842 3.9324 58.5742 3.9324 58.5742 3.9662L58.5292 4.0338Z" fill="#C5B35C"/>
<path d="M67.6167 12.5521C67.6167 12.5521 67.6617 12.6873 67.7067 12.7211C67.7067 12.7211 67.7067 12.7887 67.6617 12.8225C67.5717 12.8225 67.4817 12.8225 67.3918 12.8225C67.2568 12.8563 67.2568 13.093 67.0318 12.9577C66.9419 12.8901 66.8969 12.8225 66.9419 12.7211C67.0318 12.5859 67.1218 12.4507 67.3468 12.4507C67.4367 12.4507 67.5267 12.5183 67.6167 12.5521Z" fill="#C5B35C"/>
<path d="M67.7067 5.11549V5.1831C67.7067 5.1831 67.6617 5.25071 67.6167 5.25071C67.5267 5.25071 67.4368 5.28451 67.3468 5.31831C67.2568 5.31831 67.2568 5.55493 67.0319 5.41972C66.8969 5.31831 66.8519 5.1831 67.0319 5.08169C67.2118 4.94648 67.3468 4.77747 67.6167 4.77747C67.6167 4.84507 67.6617 4.94648 67.7067 5.01409V5.11549Z" fill="#C5B35C"/>
<path d="M72.3854 8.8676C72.3854 8.8676 72.3854 9.03662 72.3854 9.10422C72.2954 9.17183 72.2505 9.30704 72.0705 9.20563C71.9355 9.13803 71.8906 9.03662 71.9805 8.93521C72.0705 8.8338 72.2055 8.7662 72.2954 8.66479C72.2954 8.66479 72.3404 8.66479 72.3854 8.66479C72.3854 8.73239 72.3854 8.7662 72.3854 8.8338V8.8676Z" fill="#C5B35C"/>
<path d="M68.0216 8.46197H67.9766L68.0216 8.42817V8.46197Z" fill="#8B8C45"/>
<path d="M67.6617 5.01409C67.6617 5.01409 67.6167 4.84507 67.5717 4.77747C67.5717 4.77747 67.6167 4.74366 67.6617 4.70986C67.6617 4.81127 67.6617 4.91268 67.6617 5.01409Z" fill="#8B8C45"/>
<path d="M67.5717 5.28451C67.5717 5.28451 67.6167 5.2169 67.6617 5.2169C67.6617 5.2169 67.6617 5.28451 67.6617 5.31831C67.6617 5.31831 67.6167 5.31831 67.5717 5.31831V5.28451Z" fill="#8B8C45"/>
<path d="M103.832 7.98873C103.832 7.98873 103.832 8.22535 104.057 8.22535C103.742 8.7662 103.022 9.00282 102.482 9.37465C102.437 9.40845 102.347 9.37465 102.302 9.37465C102.212 9.30704 102.077 9.20563 102.122 9.10422C102.122 9.03662 102.212 8.93521 102.302 8.90141C102.887 8.69859 103.247 8.29296 103.787 7.98873H103.832Z" fill="#C5B35C"/>
<path d="M93.8446 8.25916V8.36056C93.3047 8.49577 93.3497 9.10423 92.6749 9.10423C92.4949 9.10423 92.45 9.57747 92.18 9.20563C92.0001 8.93521 92.405 8.90141 92.5849 8.7662C92.8998 8.56338 93.2147 8.36056 93.5297 8.15775C93.6196 8.09014 93.7096 8.05634 93.7996 8.12394C93.8446 8.15775 93.8896 8.22535 93.8896 8.25916H93.8446Z" fill="#C5B35C"/>
<path d="M94.0245 15.8648C94.0245 15.8648 93.6646 15.8648 93.5297 15.7634C93.5297 15.6958 93.6196 15.6282 93.6646 15.5944C93.7996 15.493 93.8896 15.2225 94.1145 15.3577C94.3844 15.493 94.2495 15.6958 94.0245 15.8648Z" fill="#C5B35C"/>
</g>
<path d="M121.354 5.2991C120.41 4.91466 119.86 5.21597 119.834 6.27968C119.775 8.62788 119.795 10.9774 119.793 13.3269C119.793 13.5827 119.843 13.8412 119.896 14.0932C119.995 14.5568 120.293 14.7763 120.761 14.7932C121.322 14.8127 121.668 14.5594 121.721 13.9944C121.778 13.4165 121.807 12.8333 121.797 12.2541C121.789 11.8696 121.879 11.7125 122.289 11.7333C122.968 11.767 123.65 11.7424 124.331 11.7424C124.547 11.7424 124.759 11.7203 124.764 12.0541C124.778 13.071 124.763 14.0815 124.384 15.0452C124.033 15.9426 123.375 16.5128 122.503 16.8531C122.314 16.844 122.132 16.8648 121.963 16.9622C121.517 16.9751 121.07 17.0024 120.624 16.9998C118.232 16.9829 116.889 15.7933 116.779 13.371C116.677 11.1319 116.643 8.87594 116.788 6.64204C116.976 3.76783 118.628 2.78595 121.585 3.03792C122.182 3.08857 122.816 3.17169 123.306 3.61717L123.334 3.63406L123.374 3.63016L123.391 3.66653C123.431 3.6964 123.474 3.72627 123.515 3.75614C124.817 4.82504 124.757 6.32384 124.759 7.80315C124.759 8.10057 124.547 8.0733 124.356 8.0733C123.634 8.07459 122.911 8.06161 122.19 8.07979C121.871 8.08758 121.799 7.95511 121.799 7.65898C121.799 6.9979 121.874 6.32773 121.632 5.68743C121.62 5.49781 121.555 5.34845 121.353 5.2978L121.354 5.2991Z" fill="#F7F8F8"/>
<path d="M134.118 5.59013C134.472 8.20813 134.329 10.8404 134.234 13.4597C134.15 15.7728 132.826 16.9469 130.594 16.9975C127.557 17.065 126.274 15.7715 126.27 12.6333C126.268 10.8443 126.274 9.05398 126.268 7.26497C126.265 6.69934 126.343 6.14668 126.479 5.6057C126.797 4.33562 127.538 3.48846 128.801 3.1797C129.94 2.90078 131.065 2.94618 132.179 3.31851C132.985 3.58836 133.473 4.21626 133.887 4.93109C133.947 5.15682 133.966 5.39812 134.118 5.59013ZM131.263 10.014C131.263 10.014 131.266 10.014 131.267 10.014C131.267 9.41205 131.27 8.80879 131.267 8.20683C131.263 7.4972 131.292 6.78367 131.236 6.07792C131.193 5.54472 130.934 5.15812 130.323 5.14774C129.738 5.13736 129.427 5.41499 129.357 6.00008C129.321 6.29847 129.285 6.59815 129.283 6.89783C129.277 8.94241 129.282 10.9857 129.278 13.0303C129.278 13.4195 129.306 13.8035 129.399 14.181C129.494 14.5637 129.737 14.7518 130.11 14.7908C130.832 14.8673 131.24 14.4885 131.257 13.6296C131.282 12.4257 131.263 11.2192 131.263 10.014Z" fill="#FAFAFA"/>
<path d="M145.843 5.88956C145.878 7.61668 145.909 9.3438 145.946 11.0696C145.983 12.8242 146.015 14.5788 146.074 16.332C146.088 16.7727 145.975 16.9282 145.501 16.9295C143.835 16.9348 143.849 16.9531 143.819 15.3292C143.79 13.7917 143.727 12.2555 143.679 10.7179C143.725 9.84194 143.717 8.96988 143.578 7.96446C143.352 8.34754 143.433 8.56065 143.562 8.76853C143.296 8.86398 143.346 9.11631 143.312 9.3085C142.903 11.5939 142.492 13.878 142.117 16.1686C142.025 16.7282 141.847 16.9701 141.213 16.9374C140.007 16.8759 139.997 16.9217 139.771 15.7202C139.362 13.5472 138.967 11.3716 138.561 9.19868C138.519 8.97511 138.448 8.75807 138.392 8.53842C138.311 8.54365 138.231 8.54888 138.15 8.55411C138.15 10.3008 138.161 12.0476 138.147 13.793C138.139 14.7043 138.078 15.6143 138.058 16.5255C138.053 16.787 137.996 16.8995 137.697 16.9269C135.841 17.0995 135.823 17.1087 135.849 15.2939C135.904 11.3638 135.989 7.43495 136.041 3.50479C136.047 3.09557 136.163 2.98574 136.563 3.00143C137.351 3.0315 138.143 3.03019 138.93 3.00143C139.315 2.98705 139.444 3.10341 139.513 3.4891C139.922 5.7915 140.369 8.08867 140.805 10.3871C140.815 10.446 140.855 10.4996 140.951 10.5702C141.016 9.86024 141.342 9.23006 141.475 8.53842C141.798 6.85706 142.172 5.18485 142.496 3.50218C142.567 3.1361 142.687 2.98705 143.082 3.00143C143.981 3.03281 144.881 3.01712 145.779 3.02104C145.8 3.97678 145.822 4.93382 145.843 5.88956Z" fill="#F7F8F8"/>
<path d="M157.574 5.88956C157.608 7.61668 157.64 9.3438 157.677 11.0696C157.714 12.8242 157.745 14.5788 157.805 16.332C157.819 16.7727 157.706 16.9282 157.232 16.9295C155.565 16.9348 155.58 16.9531 155.55 15.3292C155.521 13.7917 155.457 12.2555 155.41 10.7179C155.456 9.84194 155.448 8.96988 155.308 7.96446C155.083 8.34754 155.164 8.56065 155.293 8.76853C155.027 8.86398 155.077 9.11631 155.042 9.3085C154.634 11.5939 154.223 13.878 153.848 16.1686C153.755 16.7282 153.578 16.9701 152.944 16.9374C151.737 16.8759 151.728 16.9217 151.502 15.7202C151.093 13.5472 150.698 11.3716 150.292 9.19868C150.25 8.97511 150.179 8.75807 150.122 8.53842C150.042 8.54365 149.962 8.54888 149.881 8.55411C149.881 10.3008 149.892 12.0476 149.877 13.793C149.869 14.7043 149.809 15.6143 149.789 16.5255C149.784 16.787 149.727 16.8995 149.428 16.9269C147.572 17.0995 147.554 17.1087 147.58 15.2939C147.635 11.3638 147.72 7.43495 147.772 3.50479C147.778 3.09557 147.893 2.98574 148.294 3.00143C149.082 3.0315 149.873 3.03019 150.661 3.00143C151.046 2.98705 151.175 3.10341 151.243 3.4891C151.653 5.7915 152.1 8.08867 152.536 10.3871C152.546 10.446 152.586 10.4996 152.682 10.5702C152.746 9.86024 153.073 9.23006 153.206 8.53842C153.529 6.85706 153.903 5.18485 154.227 3.50218C154.298 3.1361 154.418 2.98705 154.813 3.00143C155.712 3.03281 156.611 3.01712 157.51 3.02104C157.531 3.97678 157.553 4.93382 157.574 5.88956Z" fill="#F7F8F8"/>
<path d="M162.508 11.7089C162.48 11.7468 162.477 11.7873 162.5 11.829C162.485 12.5461 162.336 13.2696 162.61 13.9736C162.686 14.5457 163.055 14.7677 163.621 14.7716C164.187 14.7755 164.476 14.4686 164.579 13.9736C164.631 13.7241 164.636 13.4669 164.662 13.2122C164.792 12.9888 164.729 12.7446 164.73 12.5108C164.735 10.2343 164.727 7.95786 164.739 5.68269C164.745 4.79587 164.67 3.90775 164.786 3.02223C165.666 3.02223 166.548 3.02746 167.429 3.01962C167.702 3.01701 167.908 3.02354 167.901 3.38401C167.829 6.85423 168.059 10.3297 167.775 13.796C167.609 15.8152 166.402 16.8822 164.294 16.9749C163.325 17.018 162.352 17.0468 161.419 16.6954C159.946 16.1417 159.402 14.9584 159.371 13.5988C159.292 10.1925 159.322 6.78371 159.311 3.37618C159.311 3.23904 159.257 3.02093 159.496 3.03399C160.495 3.08754 161.506 2.86289 162.495 3.14762C162.485 3.96913 162.464 4.79065 162.468 5.61217C162.476 7.64441 162.496 9.67665 162.511 11.7076L162.508 11.7089Z" fill="#F8F9F9"/>
<path d="M172.037 10.1744C172.037 12.2761 172.024 14.3413 172.047 16.4064C172.052 16.8605 171.924 17.0228 171.467 16.9927C170.953 16.9586 170.433 16.9678 169.917 16.9979C169.504 17.0215 169.423 16.8474 169.424 16.4626C169.437 12.1584 169.438 7.85406 169.421 3.54977C169.42 3.13492 169.555 3.09828 169.926 3.04331C171.135 2.86271 171.827 3.22784 172.213 4.49988C172.651 5.94337 173.364 7.30179 173.959 8.69686C174.057 8.92457 174.162 9.14967 174.377 9.35252C174.377 7.73497 174.377 6.11743 174.377 4.49988C174.377 3.54192 174.855 3.06294 175.812 3.06294C176.569 3.06294 176.948 3.44726 176.947 4.2159C176.947 8.25976 176.938 12.3036 176.96 16.3462C176.962 16.8644 176.82 17.0031 176.314 16.9953C174.846 16.9756 174.855 16.9953 174.33 15.6342C173.659 13.8963 172.971 12.1636 172.289 10.4296C172.252 10.334 172.231 10.2228 172.037 10.1731V10.1744Z" fill="#F8F9F9"/>
<path d="M178.493 3.00659C179.533 3.00396 180.574 3.00264 181.616 3C181.755 4.78656 181.654 6.57576 181.666 8.36364C181.684 11.0494 181.665 13.7365 181.679 16.4223C181.682 16.8218 181.599 17.0196 181.124 16.9985C180.24 16.9589 179.354 16.9695 178.468 16.9602L178.46 16.9457C178.465 16.4197 178.473 15.8936 178.473 15.3688C178.48 11.2485 178.487 7.12821 178.494 3.00791L178.493 3.00659Z" fill="#F6F7F6"/>
<path d="M185.215 17C185.207 13.3544 185.179 9.70875 185.207 6.06444C185.212 5.39438 185.056 5.21561 184.431 5.24474C183.208 5.30168 183.206 5.26063 183.203 3.97612C183.203 3.84502 183.224 3.70995 183.205 3.5815C183.138 3.12331 183.302 2.99486 183.741 3.00016C185.701 3.02664 187.663 3.02399 189.623 3.00148C190.025 2.99751 190.182 3.10212 190.138 3.54442C190.084 4.08603 190.344 4.78126 190.041 5.1388C189.73 5.50561 189.068 5.21428 188.561 5.26063C188.438 5.27255 188.314 5.26725 188.19 5.27122C188.158 5.12159 188.13 4.90573 187.957 4.94943C187.729 5.0077 187.863 5.19707 187.939 5.31095C188.084 5.52945 188.059 5.77179 188.059 6.01015C188.062 6.97817 188.043 7.94751 188.067 8.9142C188.081 9.50084 187.953 10.0994 188.153 10.6768C188.162 10.7205 188.176 10.7615 188.196 10.8012C188.196 11.0674 188.198 11.3336 188.198 11.5998C188.183 11.6858 188.167 11.7719 188.152 11.858C188.008 12.0765 188.064 12.3268 188.063 12.5638C188.054 14.039 188.052 15.5129 188.047 16.9881C187.102 16.9921 186.158 16.996 185.214 17H185.215Z" fill="#FCFDFD"/>
<path d="M196.672 4.17972C196.684 4.16135 196.699 4.1443 196.706 4.12461C196.965 3.3784 197.493 3.0053 198.291 3.0053C198.76 3.0053 199.228 3.0053 199.767 3.0053C199.256 4.65212 198.762 6.24252 198.27 7.83291C197.95 8.86825 197.643 9.90883 197.307 10.9402C197.181 11.3273 197.207 11.7131 197.206 12.1028C197.202 13.4754 197.175 14.848 197.217 16.2192C197.235 16.8071 197.091 17.0748 196.487 16.9659C196.387 16.9475 196.278 16.9869 196.171 17C195.87 16.9449 195.57 16.9383 195.27 16.9974C194.604 16.9405 194.27 16.5573 194.269 15.8479C194.269 15.6734 194.253 15.4975 194.271 15.3243C194.574 12.3272 193.903 9.50204 192.873 6.72541C192.43 5.52868 192.095 4.28995 191.691 3.00399C192.593 3.00399 193.422 3.01055 194.251 3.00005C194.489 2.99743 194.585 3.09847 194.644 3.32417C194.755 3.74407 194.9 4.15479 195.031 4.56814C195.152 4.96705 195.271 5.36727 195.392 5.76618C195.523 6.2412 195.656 6.71491 195.787 7.18993C195.834 7.18993 195.881 7.19124 195.928 7.19256C196.176 6.1874 196.424 5.18225 196.672 4.1771V4.17972Z" fill="#F7F8F8"/>
<path d="M106.277 29.1523C106.762 28.8697 107.181 28.7084 107.645 28.7032C108.605 28.6942 109.193 29.1845 109.253 30.1794C109.31 31.1406 109.263 32.1084 109.278 33.0723C109.285 33.5368 108.969 33.4335 108.718 33.4439C108.444 33.4555 108.174 33.4826 108.185 33.04C108.205 32.2258 108.2 31.4116 108.185 30.5974C108.173 29.911 107.914 29.6181 107.376 29.6245C106.745 29.6335 106.283 30.0529 106.28 30.6297C106.276 31.4013 106.251 32.1742 106.288 32.9445C106.312 33.4297 106.068 33.4542 105.718 33.4516C105.391 33.449 105.175 33.4245 105.18 32.9781C105.2 31.0916 105.202 29.2052 105.18 27.3187C105.173 26.7768 105.499 26.8387 105.83 26.7974C106.268 26.7432 106.292 26.9987 106.283 27.3394C106.27 27.9097 106.28 28.4813 106.28 29.1523H106.277Z" fill="#C9BF99"/>
<path d="M90.3713 29.1832C90.8882 28.8477 91.3516 28.6942 91.8598 28.7097C92.7117 28.7368 93.2635 29.1677 93.3295 30.0426C93.4067 31.0658 93.3681 32.0994 93.3744 33.1277C93.3768 33.5574 93.0505 33.4232 92.8301 33.4361C92.5847 33.4516 92.3219 33.4852 92.3306 33.0736C92.3455 32.3239 92.3331 31.5729 92.3331 30.8219C92.3331 30.3845 92.3269 29.9226 91.8897 29.7006C91.4537 29.48 91.0489 29.6903 90.6603 29.9239C90.4025 30.0787 90.3664 30.3019 90.3701 30.5768C90.3788 31.3897 90.3589 32.2039 90.3788 33.0168C90.3875 33.3729 90.2368 33.4761 89.9341 33.4387C89.6801 33.4065 89.3213 33.5832 89.3251 33.0606C89.3363 31.111 89.3288 29.1613 89.3325 27.2116C89.3325 26.6813 89.7411 26.8542 90.0164 26.8065C90.3514 26.7484 90.3801 26.9626 90.3763 27.231C90.3676 27.8439 90.3738 28.4568 90.3738 29.1832H90.3713Z" fill="#D0C49D"/>
<path d="M121.024 31.4542C120.631 31.4542 120.237 31.4658 119.845 31.4516C119.528 31.44 119.511 31.5781 119.602 31.8426C119.841 32.5432 120.621 32.8594 121.483 32.5213C121.85 32.3781 122.027 32.3897 122.175 32.7974C122.345 33.2632 122.025 33.3265 121.759 33.3935C120.784 33.64 119.802 33.7213 119.02 32.9148C118.265 32.1368 118.226 31.1613 118.523 30.1613C118.796 29.2465 119.562 28.7329 120.58 28.7355C121.584 28.7381 122.057 29.1097 122.382 30.151C122.388 30.1716 122.396 30.191 122.402 30.2116C122.759 31.4039 122.725 31.4542 121.521 31.4542C121.356 31.4542 121.19 31.4542 121.024 31.4542ZM120.496 30.7123C120.578 30.7123 120.663 30.7252 120.744 30.7097C120.989 30.6632 121.384 30.8658 121.449 30.5497C121.526 30.1794 121.229 29.8813 120.884 29.7265C120.556 29.5794 120.24 29.6374 119.952 29.8594C119.724 30.0361 119.527 30.2865 119.594 30.5574C119.665 30.8477 119.982 30.6645 120.186 30.7058C120.286 30.7265 120.392 30.7097 120.495 30.7097L120.496 30.7123Z" fill="#CAC09A"/>
<path d="M61.9827 33.5484C60.6101 33.56 59.7856 32.6852 59.7681 31.1987C59.7507 29.7097 60.6039 28.7535 61.969 28.7355C63.384 28.7161 64.2558 29.64 64.2596 31.1613C64.2633 32.6129 63.3827 33.5355 61.984 33.5484H61.9827ZM63.1535 31.1329C63.1436 31.0271 63.1386 30.8761 63.1149 30.729C63.0041 30.0464 62.6416 29.6748 62.0736 29.6581C61.4533 29.6387 61.0697 29.9858 60.9277 30.6813C60.848 31.0684 60.8754 31.4503 60.9726 31.8271C61.1756 32.6116 62.0039 32.9097 62.6478 32.4323C63.0663 32.1226 63.1336 31.6606 63.1548 31.1329H63.1535Z" fill="#CCC19A"/>
<path d="M113.989 32.5032C114.263 33.1497 113.93 33.3561 113.378 33.4748C111.218 33.9419 109.753 32.3832 110.366 30.2542C110.636 29.3135 111.373 28.7535 112.36 28.7355C113.44 28.7161 113.925 29.08 114.272 30.1768C114.323 30.3394 114.358 30.5071 114.401 30.6723C114.394 30.9303 114.389 31.1884 114.383 31.4452C114.337 31.4581 114.292 31.4723 114.246 31.4852C113.481 31.4723 112.718 31.4542 111.953 31.4529C111.781 31.4529 111.542 31.3535 111.449 31.5548C111.351 31.7626 111.503 31.9639 111.625 32.1368C112.039 32.7252 112.69 32.7961 113.643 32.3652C113.786 32.3342 113.881 32.4361 113.988 32.5019L113.989 32.5032ZM112.435 29.6581C112.147 29.6323 111.913 29.7523 111.716 29.9561C111.553 30.1252 111.39 30.3406 111.457 30.569C111.536 30.8335 111.809 30.6916 111.995 30.7084C112.239 30.7303 112.49 30.7329 112.734 30.7084C112.941 30.6865 113.25 30.8465 113.333 30.5742C113.417 30.2994 113.2 30.0581 112.996 29.8723C112.839 29.729 112.653 29.6387 112.434 29.6581H112.435Z" fill="#CCC19A"/>
<path d="M78.8114 31.849C78.8313 31.8258 78.8325 31.8026 78.8138 31.7781C78.8462 31.6632 78.8774 31.5497 78.9098 31.4361C79.3731 30.7045 80.0768 30.6374 80.8329 30.6516C81.0197 30.6555 81.4034 30.8684 81.3934 30.4142C81.3859 30.0787 81.2066 29.7948 80.8292 29.7548C80.4742 29.7174 80.1229 29.7445 79.7904 29.8877C79.4628 30.0284 79.322 29.8916 79.2037 29.5677C79.0779 29.2194 79.1601 29.0413 79.4852 28.9419C80.1092 28.7497 80.7382 28.6297 81.3797 28.8439C82.1121 29.089 82.5119 29.631 82.5243 30.4194C82.5368 31.2774 82.5106 32.1368 82.5343 32.9948C82.5493 33.5174 82.2005 33.5871 81.9626 33.3639C81.6487 33.0684 81.4743 33.2477 81.2227 33.3665C80.1939 33.8529 79.2473 33.4955 78.8736 32.4877C78.8525 32.2748 78.8313 32.0619 78.8089 31.849H78.8114ZM80.8354 31.4219C80.3085 31.3974 79.819 31.3923 79.7829 32.0555C79.758 32.5032 80.0494 32.6981 80.4605 32.6968C80.9998 32.6968 81.4781 32.2671 81.488 31.8206C81.5018 31.2013 81.0471 31.4929 80.8354 31.4206V31.4219Z" fill="#CDC29B"/>
<path d="M55.8795 30.5316C55.3888 29.64 54.8806 28.7574 54.4185 27.8503C54.3126 27.6439 53.8717 27.3432 54.279 27.1432C54.6065 26.9819 55.1023 26.8142 55.3775 27.4194C55.6665 28.0568 56.0302 28.6594 56.369 29.2723C56.4475 29.4142 56.4873 29.6 56.719 29.6671C57.1624 28.8864 57.6307 28.1058 58.0555 27.3019C58.3332 26.7755 58.7816 26.9639 59.1528 27.0077C59.4007 27.0361 59.2014 27.2864 59.1354 27.4103C58.8065 28.0297 58.5076 28.6723 58.1153 29.2452C57.3605 30.3432 57.0503 31.5368 57.216 32.8658C57.2708 33.3097 57.1064 33.4581 56.6679 33.4594C56.2307 33.4606 56.0838 33.32 56.1137 32.871C56.1448 32.4026 56.1087 31.9303 56.1012 31.4606C56.166 31.1148 56.1647 30.7871 55.8795 30.5316Z" fill="#CAC09A"/>
<path d="M69.2393 33.2555C69.2256 33.3045 69.2119 33.3548 69.1982 33.4039C68.9889 33.3974 68.7797 33.391 68.5692 33.3832C68.4583 33.1368 68.33 32.9832 68.0585 33.2129C67.8306 33.4052 67.5453 33.4813 67.2638 33.5587C66.2238 33.8439 65.3432 33.2955 65.2448 32.1884C65.1576 31.1897 65.2099 30.1781 65.2037 29.1729C65.2 28.6955 65.5549 28.8632 65.7891 28.84C66.0731 28.8116 66.3172 28.8219 66.3147 29.2516C66.3073 30.2361 66.3359 31.2194 66.3509 32.2039C66.113 32.2542 65.8564 32.2813 65.7953 32.5923C65.7742 32.7032 65.829 32.8103 65.9348 32.8426C66.2251 32.9329 66.2811 32.6168 66.4567 32.5032C66.4742 32.4916 66.4879 32.4761 66.5028 32.4632C66.6062 32.5213 66.7096 32.5794 66.8142 32.6374C67.7434 32.8039 68.1806 32.4374 68.1793 31.5006C68.1781 30.6245 68.1818 29.7484 68.1831 28.871C68.1831 28.871 68.1955 28.8581 68.1955 28.8594C68.5293 28.8619 68.8631 28.8632 69.1969 28.8658C69.2119 28.911 69.2256 28.9561 69.2405 29.0013C69.1807 30.4194 69.1807 31.8387 69.2405 33.2568L69.2393 33.2555Z" fill="#CDC29B"/>
<path d="M78.1238 29.7329C77.3914 29.8112 77.0252 30.2404 77.0252 31.0206C77.0252 31.6839 77.0041 32.3497 77.0315 33.0116C77.0514 33.4916 76.7612 33.4426 76.466 33.4503C76.1533 33.4568 75.903 33.4542 75.9167 32.9935C75.9441 32.0735 75.9229 31.1523 75.9254 30.2323C75.9254 29.9858 75.9391 29.7394 75.5866 29.7794C75.2839 29.8142 75.2503 29.6168 75.2653 29.3768C75.2777 29.1716 75.2192 28.8994 75.5393 28.9148C76.025 28.9394 75.9092 28.5781 75.9329 28.3032C76.03 27.1897 76.8533 26.5742 77.8896 26.8542C78.0889 26.9084 78.4078 26.92 78.2683 27.2813C78.1798 27.511 78.2484 27.9239 77.7439 27.7626C77.3204 27.6271 77.1074 27.92 77.0327 28.3445C76.948 28.8194 77.1573 28.9084 77.572 28.9239C78.0403 28.9406 77.9743 29.4219 78.1238 29.7342V29.7329Z" fill="#CAC09A"/>
<path d="M88.2078 29.609C87.4945 29.7415 87.1379 30.1944 87.1379 30.9677C87.1379 31.289 87.1267 31.6116 87.1453 31.9329C87.174 32.4323 87.3832 32.7871 87.9263 32.6645C88.4096 32.5561 88.3685 32.9639 88.4494 33.1974C88.564 33.529 88.2377 33.5032 88.067 33.5574C87.027 33.8877 86.1165 33.2181 86.0904 32.1058C86.0779 31.5484 86.0953 30.9897 86.0854 30.4323C86.0791 30.0942 86.2186 29.671 85.6357 29.6568C85.4028 29.6516 85.4825 29.3935 85.4775 29.2374C85.4738 29.0968 85.4439 28.8826 85.6494 28.8916C86.1439 28.9123 86.0841 28.5729 86.0891 28.249C86.0953 27.8206 86.5724 27.471 86.971 27.6026C87.2624 27.6981 87.1341 27.9665 87.1267 28.1497C87.1105 28.6013 87.1179 28.9303 87.7245 28.8942C88.1194 28.871 88.0783 29.3316 88.2066 29.6077L88.2078 29.609Z" fill="#CFC39C"/>
<path d="M100.926 32.4632C101.098 31.96 100.775 31.7471 100.415 31.6C100.049 31.4516 99.6831 31.3123 99.3418 31.1071C98.9133 30.8477 98.658 30.4955 98.7115 29.9574C98.7651 29.4065 99.069 29.0465 99.5523 28.871C100.225 28.6271 100.892 28.7084 101.55 28.9781C101.862 29.1058 101.873 29.2903 101.767 29.5819C101.654 29.8916 101.513 29.9845 101.213 29.8232C100.934 29.6735 100.626 29.6271 100.31 29.6529C100.082 29.671 99.901 29.7639 99.8462 30.0013C99.7914 30.2374 99.9645 30.3458 100.139 30.431C100.529 30.6245 100.926 30.8052 101.312 31.0065C101.656 31.1858 101.894 31.4787 102.071 31.8284C102.06 31.8735 102.05 31.9174 102.038 31.9626C101.682 32.1432 101.326 32.3239 100.97 32.5058L100.927 32.4632H100.926Z" fill="#CCC19A"/>
<path d="M70.4126 31.1535C70.4126 30.5316 70.4076 29.911 70.4164 29.289C70.4188 29.1135 70.3466 28.8761 70.6356 28.8477C70.8261 28.8297 71.0217 28.8258 71.1014 29.0594C71.2446 29.4761 71.4551 29.4181 71.7479 29.2039C71.9459 29.0581 72.1875 28.9677 72.4204 28.8865C72.7381 28.7768 72.7979 29.0219 72.8589 29.2632C72.9199 29.5032 72.9834 29.6671 72.6409 29.7871C71.4651 30.1987 71.4726 30.2206 71.4726 31.52C71.4726 32.0129 71.4502 32.5071 71.4776 32.9987C71.5037 33.4684 71.221 33.4426 70.9171 33.4452C70.6231 33.449 70.3877 33.44 70.4051 33.0181C70.4301 32.3974 70.4114 31.7755 70.4126 31.1535Z" fill="#CFC39C"/>
<path d="M116.466 33.2503C116.441 33.3058 116.415 33.3626 116.39 33.4181C116.055 33.4052 115.72 33.3935 115.384 33.3806C115.378 33.3406 115.371 33.2994 115.361 33.2594C115.416 32.4426 115.411 31.6271 115.36 30.8103C115.36 30.7032 115.357 30.5974 115.356 30.4903C115.418 29.9923 115.409 29.4929 115.361 28.9935C115.37 28.9561 115.378 28.9174 115.388 28.88C115.556 28.8658 115.725 28.8516 115.894 28.8361C116.154 29.4116 116.477 29.4013 116.969 29.0658C117.531 28.6839 117.751 28.8065 117.847 29.3561C117.894 29.6245 117.822 29.7265 117.558 29.791C117.157 29.8903 116.782 30.0735 116.512 30.4232C116.324 31.3626 116.413 32.3058 116.467 33.249L116.466 33.2503Z" fill="#CFC39C"/>
<path d="M96.7037 31.12C96.7037 30.4994 96.7261 29.8774 96.6962 29.2581C96.6763 28.831 96.9105 28.8142 97.2007 28.8361C97.4635 28.8568 97.806 28.7161 97.7998 29.2284C97.7836 30.4916 97.7811 31.7548 97.801 33.0181C97.8085 33.4994 97.5195 33.4387 97.2281 33.4529C96.9005 33.4671 96.6713 33.4323 96.695 32.9845C96.7286 32.3652 96.7037 31.7432 96.7037 31.1226V31.12Z" fill="#C9BF99"/>
<path d="M83.7263 31.1148C83.7263 30.4955 83.745 29.8748 83.7201 29.2568C83.7001 28.7677 84.0115 28.8503 84.2943 28.8361C84.5994 28.8194 84.8 28.8619 84.7925 29.271C84.7726 30.5097 84.7688 31.7484 84.7937 32.9871C84.8025 33.4426 84.567 33.4439 84.2507 33.4477C83.9206 33.4516 83.6964 33.4168 83.7188 32.9742C83.75 32.3561 83.7263 31.7355 83.7263 31.1161V31.1148Z" fill="#D0C49D"/>
<path d="M101.459 33.2658C100.698 33.7032 99.9123 33.5806 99.1288 33.36C98.8274 33.2748 98.6916 33.0981 98.8386 32.7432C98.9694 32.4284 99.1027 32.3265 99.4352 32.4774C99.9222 32.6981 100.432 32.7187 100.927 32.4645L100.97 32.5071C100.947 32.8877 101.196 33.0826 101.46 33.2671L101.459 33.2658Z" fill="#CCC19A"/>
<path d="M97.877 27.4826C97.8396 27.8787 97.6404 28.1084 97.243 28.1084C96.8743 28.1084 96.6501 27.8877 96.629 27.5277C96.6053 27.1277 96.8382 26.8787 97.2243 26.8632C97.6105 26.8477 97.8322 27.0761 97.877 27.4826Z" fill="#C9BF99"/>
<path d="M84.161 26.8348C84.6356 26.8877 84.9756 27.1006 84.856 27.6529C84.7713 28.0477 84.4487 28.1858 84.0838 28.0877C83.6566 27.9729 83.5968 27.6206 83.6516 27.2258C83.7774 27.0348 83.9729 26.9394 84.161 26.8348Z" fill="#C9BF99"/>
<path d="M101.459 33.2658C101.196 33.0813 100.947 32.8865 100.968 32.5058C101.325 32.3252 101.681 32.1445 102.037 31.9639C102.043 32.1806 102.05 32.3974 102.056 32.6142C101.888 32.8619 101.751 33.1406 101.458 33.2671L101.459 33.2658Z" fill="#CEC5A5"/>
<path d="M66.4356 32.2258C66.458 32.3045 66.4792 32.3832 66.5016 32.4632C66.4866 32.4761 66.4717 32.4929 66.4555 32.5032C66.2811 32.6168 66.2251 32.9329 65.9336 32.8426C65.829 32.8103 65.7729 32.7032 65.7941 32.5923C65.8551 32.2813 66.1117 32.2542 66.3496 32.2039C66.3795 32.2065 66.4069 32.2142 66.4343 32.2258H66.4356Z" fill="#CEC5A5"/>
<path d="M114.891 31.5768C114.917 31.5432 114.945 31.5123 114.973 31.4813C114.946 31.5135 114.919 31.5445 114.891 31.5768Z" fill="#506D5D"/>
<defs>
<clipPath id="clip0_49_3648">
<rect width="55.2" height="12" fill="white" transform="translate(53.4905 4)"/>
</clipPath>
</defs>
</svg>
